<mxfile host="65bd71144e">
    <diagram id="C5RBs43oDa-KdzZeNtuy" name="Page-1">
        <mxGraphModel dx="677" dy="716" grid="1" gridSize="10" guides="1" tooltips="1" connect="1" arrows="1" fold="1" page="1" pageScale="1" pageWidth="827" pageHeight="1169" math="0" shadow="0">
            <root>
                <mxCell id="WIyWlLk6GJQsqaUBKTNV-0"/>
                <mxCell id="WIyWlLk6GJQsqaUBKTNV-1" parent="WIyWlLk6GJQsqaUBKTNV-0"/>
                <mxCell id="0" value="&lt;span style=&quot;color: rgb(205 , 215 , 224) ; font-family: &amp;#34;hack&amp;#34; , &amp;#34;menlo&amp;#34; , &amp;#34;monaco&amp;#34; , &amp;#34;consolas&amp;#34; , &amp;#34;courier new&amp;#34; , monospace , &amp;#34;맑은 고딕&amp;#34; , &amp;#34;malgun gothic&amp;#34; , , &amp;#34;dotum&amp;#34; , sans-serif ; font-size: inherit ; background-color: rgb(32 , 43 , 61) ; text-align: left&quot;&gt;섞은 음식의 스코빌 지수 (A) = 가장 맵지 않은 음식의 스코빌 지수(socvile[min]) + (두 번째로 맵지 않은 음식의 스코빌 지수 (scovile[min_2?] * 2)&lt;br&gt;&lt;br&gt;&lt;br&gt;&lt;br&gt;힙으로 하면 정렬 됨&lt;br&gt;i[max-1]?&lt;br&gt;&lt;br&gt;&lt;br&gt;&lt;br&gt;모든 음식의 스코빌 지수가 k 이상이 될떄 까지 반복 for ? while?&lt;br&gt;&lt;br&gt;스코빌지수 배열 scovile = []&lt;br&gt;원하는 스코빌 지수 k = []&lt;br&gt;&lt;br&gt;모든 음식 k이상으로 만들기 위한 횟수 return&lt;br&gt;&lt;br&gt;&lt;br&gt;&lt;br&gt;&lt;/span&gt;" style="rounded=1;whiteSpace=wrap;html=1;fontSize=12;glass=0;strokeWidth=1;shadow=0;" parent="WIyWlLk6GJQsqaUBKTNV-1" vertex="1">
                    <mxGeometry x="300" y="30" width="510" height="1070" as="geometry"/>
                </mxCell>
            </root>
        </mxGraphModel>
    </diagram>
</mxfile>